# xmcd CD database file
#
# Track frame offsets:
#	150
#	16537
#	38592
#	55872
#	62350
#	82404
#	101534
#	108032
#	119998
#
# Disc length: 2081 seconds
#
# Revision: 1
# Processed by: cddbd v1.5.2PL0 Copyright (c) Steve Scherf et al.
# Submitted via: CDex 1.70beta2
#
DISCID=6a081f09
DTITLE=KC Roberts and the Live Revolution - Good Life
DYEAR=2010
DGENRE=Jazz
TTITLE0=KC Roberts and the Live Revolution - Revival 2010
TTITLE1=KC Roberts and the Live Revolution - Had a Dream
TTITLE2=KC Roberts and the Live Revolution - Good Life
TTITLE3=KC Roberts and the Live Revolution - Small Pocket
TTITLE4=KC Roberts and the Live Revolution - Dance Floor
TTITLE5=KC Roberts and the Live Revolution - Maria
TTITLE6=KC Roberts and the Live Revolution - The Pentney Strut
TTITLE7=KC Roberts and the Live Revolution - Wake Up
TTITLE8=KC Roberts and the Live Revolution - Let's Get Out Of Here
EXTD=YEAR: 2010
EXTT0=
EXTT1=
EXTT2=
EXTT3=
EXTT4=
EXTT5=
EXTT6=
EXTT7=
EXTT8=
PLAYORDER=
